<mxfile host="app.diagrams.net" modified="2023-06-01T15:52:17.113Z" agent="Mozilla/5.0 (Windows NT 10.0; Win64; x64) AppleWebKit/537.36 (KHTML, like Gecko) Chrome/114.0.0.0 Safari/537.36" etag="TcdR2I8Zf9eDgmK2bo52" version="21.3.6" type="github" pages="2">
  <diagram name="Abstract" id="TSeFvMI9SIae3FSerJpS">
    <mxGraphModel dx="794" dy="525" grid="0" gridSize="10" guides="1" tooltips="1" connect="1" arrows="1" fold="1" page="1" pageScale="1" pageWidth="827" pageHeight="1169" math="0" shadow="0">
      <root>
        <mxCell id="0" />
        <mxCell id="1" parent="0" />
        <mxCell id="-zl2VKCgOVVPupmAOLrM-6" value="Start : 10/06/23&lt;br&gt;&lt;div style=&quot;&quot;&gt;&lt;span style=&quot;background-color: initial;&quot;&gt;End : Circa 10/07/23&lt;/span&gt;&lt;/div&gt;&lt;div style=&quot;&quot;&gt;&lt;span style=&quot;background-color: initial;&quot;&gt;&lt;br&gt;&lt;/span&gt;&lt;/div&gt;&lt;div style=&quot;&quot;&gt;&lt;span style=&quot;background-color: initial;&quot;&gt;&lt;br&gt;&lt;/span&gt;&lt;/div&gt;&lt;div style=&quot;&quot;&gt;&lt;span style=&quot;background-color: initial;&quot;&gt;&amp;gt; Working website&lt;br&gt;&amp;gt; major graphic updates done&lt;/span&gt;&lt;/div&gt;" style="shape=process;whiteSpace=wrap;html=1;backgroundOutline=1;fontSize=16;align=left;" parent="1" vertex="1">
          <mxGeometry x="10" y="11" width="192" height="153" as="geometry" />
        </mxCell>
        <mxCell id="-zl2VKCgOVVPupmAOLrM-9" value="Start : 10/06/23&lt;br&gt;&lt;div style=&quot;&quot;&gt;&lt;span style=&quot;background-color: initial;&quot;&gt;End : 1/08/23&lt;/span&gt;&lt;/div&gt;&lt;div style=&quot;&quot;&gt;&lt;span style=&quot;background-color: initial;&quot;&gt;&lt;br&gt;&lt;/span&gt;&lt;/div&gt;&lt;div style=&quot;&quot;&gt;&lt;span style=&quot;background-color: initial;&quot;&gt;&lt;br&gt;&lt;/span&gt;&lt;/div&gt;&lt;div style=&quot;&quot;&gt;&lt;span style=&quot;background-color: initial;&quot;&gt;&amp;gt; Recruiting&lt;/span&gt;&lt;/div&gt;&lt;div style=&quot;&quot;&gt;&lt;span style=&quot;background-color: initial;&quot;&gt;&amp;gt; Adding required data&lt;br&gt;&amp;gt; Marketing&lt;/span&gt;&lt;/div&gt;" style="shape=process;whiteSpace=wrap;html=1;backgroundOutline=1;fontSize=16;align=left;" parent="1" vertex="1">
          <mxGeometry x="312" y="11" width="204" height="153" as="geometry" />
        </mxCell>
        <mxCell id="Ot16HUAsq3Y7IVTsfHwv-1" style="edgeStyle=none;curved=1;rounded=0;orthogonalLoop=1;jettySize=auto;html=1;exitX=1;exitY=0.5;exitDx=0;exitDy=0;fontSize=12;startSize=8;endSize=8;" parent="1" source="-zl2VKCgOVVPupmAOLrM-6" target="-zl2VKCgOVVPupmAOLrM-6" edge="1">
          <mxGeometry relative="1" as="geometry" />
        </mxCell>
        <mxCell id="Ot16HUAsq3Y7IVTsfHwv-3" value="&amp;gt;Clubs adding (personalised)" style="shape=process;whiteSpace=wrap;html=1;backgroundOutline=1;fontSize=16;align=left;" parent="1" vertex="1">
          <mxGeometry x="621" y="62" width="204" height="49" as="geometry" />
        </mxCell>
        <mxCell id="Ot16HUAsq3Y7IVTsfHwv-4" value="" style="endArrow=classic;html=1;rounded=0;fontSize=12;startSize=8;endSize=8;curved=1;" parent="1" edge="1">
          <mxGeometry width="50" height="50" relative="1" as="geometry">
            <mxPoint x="225" y="87" as="sourcePoint" />
            <mxPoint x="289" y="87" as="targetPoint" />
            <Array as="points">
              <mxPoint x="256" y="87" />
            </Array>
          </mxGeometry>
        </mxCell>
        <mxCell id="Ot16HUAsq3Y7IVTsfHwv-6" value="" style="endArrow=classic;html=1;rounded=0;fontSize=12;startSize=8;endSize=8;curved=1;" parent="1" edge="1">
          <mxGeometry width="50" height="50" relative="1" as="geometry">
            <mxPoint x="537" y="87" as="sourcePoint" />
            <mxPoint x="601" y="87" as="targetPoint" />
            <Array as="points">
              <mxPoint x="568" y="87" />
            </Array>
          </mxGeometry>
        </mxCell>
      </root>
    </mxGraphModel>
  </diagram>
  <diagram id="N0sx12GW3bTNHH1LoAYL" name="1_NW">
    <mxGraphModel dx="1194" dy="925" grid="0" gridSize="10" guides="1" tooltips="1" connect="1" arrows="1" fold="1" page="0" pageScale="1" pageWidth="827" pageHeight="1169" math="0" shadow="0">
      <root>
        <mxCell id="0" />
        <mxCell id="1" parent="0" />
        <mxCell id="QovcsFj_045pvhH2nfmR-1" value="Fresher&#39;s guide" style="rounded=0;whiteSpace=wrap;html=1;fontSize=16;" vertex="1" parent="1">
          <mxGeometry x="-114" y="-75" width="120" height="60" as="geometry" />
        </mxCell>
        <mxCell id="QovcsFj_045pvhH2nfmR-2" value="Academics" style="rounded=0;whiteSpace=wrap;html=1;fontSize=16;" vertex="1" parent="1">
          <mxGeometry x="-114" y="19" width="120" height="60" as="geometry" />
        </mxCell>
        <mxCell id="QovcsFj_045pvhH2nfmR-3" value="Explore" style="rounded=0;whiteSpace=wrap;html=1;fontSize=16;" vertex="1" parent="1">
          <mxGeometry x="-114" y="127" width="120" height="60" as="geometry" />
        </mxCell>
        <mxCell id="QovcsFj_045pvhH2nfmR-4" value="Emergency" style="rounded=0;whiteSpace=wrap;html=1;fontSize=16;" vertex="1" parent="1">
          <mxGeometry x="-114" y="236" width="120" height="60" as="geometry" />
        </mxCell>
        <mxCell id="QovcsFj_045pvhH2nfmR-5" value="Extra" style="rounded=0;whiteSpace=wrap;html=1;fontSize=16;" vertex="1" parent="1">
          <mxGeometry x="-114" y="339" width="120" height="60" as="geometry" />
        </mxCell>
        <mxCell id="QovcsFj_045pvhH2nfmR-6" value="info" style="rounded=0;whiteSpace=wrap;html=1;fontSize=16;" vertex="1" parent="1">
          <mxGeometry x="65" y="-75" width="120" height="60" as="geometry" />
        </mxCell>
        <mxCell id="QovcsFj_045pvhH2nfmR-7" value="info" style="rounded=0;whiteSpace=wrap;html=1;fontSize=16;" vertex="1" parent="1">
          <mxGeometry x="69" y="19" width="120" height="60" as="geometry" />
        </mxCell>
        <mxCell id="QovcsFj_045pvhH2nfmR-8" value="campus" style="rounded=0;whiteSpace=wrap;html=1;fontSize=16;" vertex="1" parent="1">
          <mxGeometry x="78" y="127" width="120" height="33" as="geometry" />
        </mxCell>
        <mxCell id="QovcsFj_045pvhH2nfmR-9" value="city" style="rounded=0;whiteSpace=wrap;html=1;fontSize=16;" vertex="1" parent="1">
          <mxGeometry x="78" y="160" width="120" height="31" as="geometry" />
        </mxCell>
        <mxCell id="QovcsFj_045pvhH2nfmR-11" value="info" style="rounded=0;whiteSpace=wrap;html=1;fontSize=16;" vertex="1" parent="1">
          <mxGeometry x="69" y="344" width="120" height="60" as="geometry" />
        </mxCell>
        <mxCell id="QovcsFj_045pvhH2nfmR-12" value="info" style="rounded=0;whiteSpace=wrap;html=1;fontSize=16;" vertex="1" parent="1">
          <mxGeometry x="73" y="236" width="120" height="60" as="geometry" />
        </mxCell>
        <mxCell id="QovcsFj_045pvhH2nfmR-13" value="" style="endArrow=classic;html=1;rounded=0;fontSize=12;startSize=8;endSize=8;curved=1;" edge="1" parent="1">
          <mxGeometry width="50" height="50" relative="1" as="geometry">
            <mxPoint x="10" y="-50" as="sourcePoint" />
            <mxPoint x="65" y="-50" as="targetPoint" />
          </mxGeometry>
        </mxCell>
        <mxCell id="QovcsFj_045pvhH2nfmR-14" value="" style="endArrow=classic;html=1;rounded=0;fontSize=12;startSize=8;endSize=8;curved=1;" edge="1" parent="1">
          <mxGeometry width="50" height="50" relative="1" as="geometry">
            <mxPoint x="10" y="48.5" as="sourcePoint" />
            <mxPoint x="65" y="48.5" as="targetPoint" />
          </mxGeometry>
        </mxCell>
        <mxCell id="QovcsFj_045pvhH2nfmR-15" value="" style="endArrow=classic;html=1;rounded=0;fontSize=12;startSize=8;endSize=8;curved=1;" edge="1" parent="1">
          <mxGeometry width="50" height="50" relative="1" as="geometry">
            <mxPoint x="216" y="156.5" as="sourcePoint" />
            <mxPoint x="271" y="156.5" as="targetPoint" />
          </mxGeometry>
        </mxCell>
        <mxCell id="QovcsFj_045pvhH2nfmR-16" value="" style="endArrow=classic;html=1;rounded=0;fontSize=12;startSize=8;endSize=8;curved=1;" edge="1" parent="1">
          <mxGeometry width="50" height="50" relative="1" as="geometry">
            <mxPoint x="10" y="265.5" as="sourcePoint" />
            <mxPoint x="65" y="265.5" as="targetPoint" />
          </mxGeometry>
        </mxCell>
        <mxCell id="QovcsFj_045pvhH2nfmR-17" value="" style="endArrow=classic;html=1;rounded=0;fontSize=12;startSize=8;endSize=8;curved=1;" edge="1" parent="1">
          <mxGeometry width="50" height="50" relative="1" as="geometry">
            <mxPoint x="10" y="373.5" as="sourcePoint" />
            <mxPoint x="65" y="373.5" as="targetPoint" />
          </mxGeometry>
        </mxCell>
        <mxCell id="QovcsFj_045pvhH2nfmR-19" value="" style="endArrow=none;dashed=1;html=1;rounded=0;fontSize=12;startSize=8;endSize=8;curved=1;" edge="1" parent="1">
          <mxGeometry width="50" height="50" relative="1" as="geometry">
            <mxPoint x="13" y="154" as="sourcePoint" />
            <mxPoint x="69" y="154" as="targetPoint" />
            <Array as="points">
              <mxPoint x="60" y="152" />
            </Array>
          </mxGeometry>
        </mxCell>
        <mxCell id="QovcsFj_045pvhH2nfmR-20" value="info" style="rounded=0;whiteSpace=wrap;html=1;fontSize=16;" vertex="1" parent="1">
          <mxGeometry x="284" y="127" width="120" height="60" as="geometry" />
        </mxCell>
      </root>
    </mxGraphModel>
  </diagram>
</mxfile>
